<svg data-v-423bf9ae="" xmlns="http://www.w3.org/2000/svg" viewBox="0 0 304 107" class="iconLeft"><!----><!----><!----><g data-v-423bf9ae="" id="67fba45c-8f48-44dc-bce0-44b4ef95afa5" fill="white" transform="matrix(4.501125335693359,0,0,4.501125335693359,100.9960708618164,5.192640781402588)"><path d="M4.96 14.35L8.25 4.58L7.03 4.58L5.40 9.51L4.30 13.17L4.23 13.17L3.15 9.51L1.54 4.58L0.28 4.58L3.53 14.35ZM10.28 5.43C10.75 5.43 10.96 5.18 10.96 4.80L10.96 4.62C10.96 4.24 10.75 3.99 10.28 3.99C9.80 3.99 9.59 4.24 9.59 4.62L9.59 4.80C9.59 5.18 9.80 5.43 10.28 5.43ZM9.72 14.35L10.84 14.35L10.84 7.13L9.72 7.13ZM19.10 14.35L19.10 13.37L18.27 13.37L18.27 9.39C18.27 7.87 17.23 6.96 15.50 6.96C14.20 6.96 13.33 7.60 12.94 8.37L13.61 9.00C14 8.34 14.57 7.92 15.44 7.92C16.59 7.92 17.15 8.48 17.15 9.51L17.15 10.22L15.72 10.22C13.62 10.22 12.64 10.98 12.64 12.33C12.64 13.68 13.54 14.52 15.06 14.52C16.07 14.52 16.84 14.06 17.15 13.17L17.22 13.17C17.30 13.85 17.64 14.35 18.47 14.35ZM15.25 13.57C14.38 13.57 13.82 13.16 13.82 12.45L13.82 12.15C13.82 11.45 14.39 11.06 15.67 11.06L17.15 11.06L17.15 12.25C17.15 12.99 16.35 13.57 15.25 13.57ZM26.78 15.15C26.78 13.96 26.01 13.23 24.22 13.23L22.68 13.23C22.02 13.23 21.57 13.12 21.57 12.68C21.57 12.24 22.05 12.00 22.53 11.87C22.74 11.91 22.99 11.94 23.23 11.94C24.88 11.94 25.96 10.92 25.96 9.45C25.96 8.68 25.65 8.04 25.13 7.59L25.13 7.13L26.50 7.13L26.50 6.15L25.42 6.15C24.82 6.15 24.58 6.55 24.58 7.11L24.58 7.24C24.19 7.06 23.73 6.96 23.21 6.96C21.57 6.96 20.50 7.98 20.50 9.45C20.50 10.46 21 11.26 21.85 11.66L21.85 11.72C21.13 11.90 20.61 12.25 20.61 12.98C20.61 13.47 20.85 13.79 21.25 13.99L21.25 14.14C20.54 14.34 20.10 14.76 20.10 15.54C20.10 16.67 21.03 17.32 23.28 17.32C25.61 17.32 26.78 16.63 26.78 15.15ZM25.73 15.23C25.73 16.02 25.00 16.41 23.76 16.41L22.72 16.41C21.59 16.41 21.15 15.89 21.15 15.26C21.15 14.81 21.36 14.49 21.83 14.28L24.23 14.28C25.35 14.28 25.73 14.66 25.73 15.23ZM23.23 11.05C22.27 11.05 21.67 10.60 21.67 9.65L21.67 9.25C21.67 8.30 22.27 7.85 23.23 7.85C24.18 7.85 24.78 8.30 24.78 9.25L24.78 9.65C24.78 10.60 24.18 11.05 23.23 11.05ZM30.72 14.52C32.07 14.52 33.11 13.85 33.57 12.87L32.77 12.29C32.40 13.09 31.70 13.54 30.79 13.54C29.44 13.54 28.64 12.60 28.64 11.35L28.64 11.02L33.84 11.02L33.84 10.49C33.84 8.44 32.65 6.96 30.72 6.96C28.76 6.96 27.47 8.44 27.47 10.74C27.47 13.03 28.76 14.52 30.72 14.52ZM30.72 7.90C31.86 7.90 32.63 8.75 32.63 10.02L32.63 10.18L28.64 10.18L28.64 10.08C28.64 8.82 29.50 7.90 30.72 7.90ZM37.87 14.35L37.87 13.37L36.81 13.37L36.81 3.99L35.69 3.99L35.69 13.19C35.69 13.86 36.11 14.35 36.88 14.35ZM42.06 12.04L41.66 13.22L41.59 13.22L41.26 12.04L39.52 7.13L38.40 7.13L41.10 14.63L40.56 16.17L39.42 16.17L39.42 17.15L40.00 17.15C41.06 17.15 41.36 16.90 41.68 16.03L44.91 7.13L43.81 7.13Z"></path></g><!----><g data-v-423bf9ae="" id="fd4f4ae3-0555-4d62-a8da-5aa404457ade" transform="matrix(1.0868111848831177,0,0,1.0868111848831177,-13.255263328552246,-0.23894432187080383)" stroke="none" fill="white"><g clip-rule="evenodd"><path d="M12.983 10.59l17.018 88.223-5.872-59.049 29.021-1.892-.054-9.883L64.549 1 53.622 18.977z"></path><path d="M59.389 54.548l5.16-53.541-8.74 39.716-19.612 1.045 1.57 20.462-7.766 36.583 12.057-39.899z"></path><path d="M62.8 67.182l.549-10.453-15.979 3.755-.032 11.797-17.337 26.532 21.68-27.616zM65.711 62.394l14.841-4.731 1.509-12.532-15.899 2.095zM72.07 44.502l10.988-1.417 1.581-10.278-8.079-.373L64.549 1l8.43 30.967z"></path><path d="M87.413 31.294l1.256-9.506-9.544-2.694L64.549 1l14.483 22.437-.422 7z"></path></g></g><!----></svg>