<?xml version="1.0" encoding="UTF-8"?>
<svg id="Camada_1" data-name="Camada 1" xmlns="http://www.w3.org/2000/svg" viewBox="0 0 298.11 86.15">
  <defs>
    <style>
      .cls-1, .cls-2 {
        fill: #fff;
      }

      .cls-3 {
        fill: none;
        stroke-width: 10px;
      }

      .cls-3, .cls-2 {
        stroke: #fff;
        stroke-miterlimit: 10;
      }
    </style>
  </defs>
  <g id="_55516796-f3c4-413e-963e-66f360cd0aa3" data-name="55516796-f3c4-413e-963e-66f360cd0aa3">
    <path class="cls-1" d="m118.29,57.29l14.81-43.98h-5.49l-7.34,22.19-4.95,16.47h-.32l-4.86-16.47-7.25-22.19h-5.67l14.63,43.98h6.44Zm23.95-40.15c2.12,0,3.06-1.13,3.06-2.84v-.81c0-1.71-.95-2.84-3.06-2.84s-3.11,1.13-3.11,2.84v.81c0,1.71.95,2.84,3.11,2.84Zm-2.52,40.15h5.04V24.8h-5.04v32.5Zm42.22,0v-4.41h-3.74v-17.91c0-6.84-4.68-10.94-12.47-10.94-5.85,0-9.77,2.88-11.52,6.35l3.02,2.84c1.76-2.97,4.32-4.86,8.24-4.86,5.18,0,7.7,2.52,7.7,7.16v3.2h-6.44c-9.45,0-13.86,3.42-13.86,9.5s4.05,9.86,10.89,9.86c4.55,0,8.01-2.07,9.41-6.08h.32c.36,3.06,1.89,5.31,5.63,5.31h2.84Zm-17.33-3.51c-3.92,0-6.44-1.85-6.44-5.04v-1.35c0-3.15,2.57-4.91,8.33-4.91h6.66v5.36c0,3.33-3.6,5.94-8.55,5.94Zm51.9,7.11c0-5.36-3.47-8.64-11.52-8.64h-6.93c-2.97,0-5-.5-5-2.48s2.16-3.06,4.32-3.65c.95.18,2.07.32,3.15.32,7.43,0,12.29-4.59,12.29-11.21,0-3.47-1.4-6.35-3.74-8.37v-2.07h6.17v-4.41h-4.86c-2.7,0-3.78,1.8-3.78,4.32v.59c-1.76-.81-3.83-1.26-6.17-1.26-7.38,0-12.2,4.59-12.2,11.21,0,4.55,2.25,8.15,6.08,9.95v.27c-3.24.81-5.58,2.39-5.58,5.67,0,2.21,1.08,3.65,2.88,4.55v.68c-3.2.9-5.18,2.79-5.18,6.3,0,5.09,4.19,8.01,14.31,8.01s15.75-3.11,15.75-9.77Zm-4.73.36c0,3.56-3.29,5.31-8.87,5.31h-4.68c-5.09,0-7.07-2.34-7.07-5.18,0-2.03.95-3.47,3.06-4.41h10.8c5.04,0,6.75,1.71,6.75,4.28Zm-11.25-18.81c-4.32,0-7.02-2.03-7.02-6.3v-1.8c0-4.28,2.7-6.3,7.02-6.3s6.98,2.03,6.98,6.3v1.8c0,4.28-2.7,6.3-6.98,6.3Zm33.71,15.62c6.08,0,10.76-3.02,12.83-7.43l-3.6-2.61c-1.67,3.6-4.82,5.63-8.91,5.63-6.08,0-9.68-4.23-9.68-9.86v-1.49h23.41v-2.39c0-9.23-5.36-15.89-14.04-15.89s-14.63,6.66-14.63,17.01,5.81,17.01,14.63,17.01Zm0-29.8c5.13,0,8.6,3.83,8.6,9.54v.72h-17.96v-.45c0-5.67,3.87-9.81,9.36-9.81Zm32.18,29.03v-4.41h-4.77V10.66h-5.04v41.41c0,3.02,1.89,5.22,5.36,5.22h4.46Zm18.86-10.4l-1.8,5.31h-.32l-1.49-5.31-7.83-22.1h-5.04l12.15,33.76-2.43,6.93h-5.13v4.41h2.61c4.77,0,6.12-1.13,7.56-5.04l14.54-40.06h-4.95l-7.88,22.1Z"/>
  </g>
  <path class="cls-3" d="m4.28,2.66c13.49,22.43,26.81,44.96,40.49,67.27,1.15-1.91,2.35-3.81,3.42-5.77-1.22,1.84-2.48,3.77-3.42,5.77,6.56-10.9,13.12-21.8,19.68-32.69"/>
  <rect class="cls-2" x="79.18" y="2.61" width="8.99" height="5.48" transform="translate(14.79 -42.44) rotate(31.09)"/>
  <rect class="cls-2" x="64.39" y="27.85" width="8.99" height="4.05" transform="translate(25.32 -31.28) rotate(31.09)"/>
  <rect class="cls-2" x="69.3" y="20.22" width="8.99" height="3.01" transform="translate(21.82 -34.99) rotate(31.09)"/>
  <rect class="cls-2" x="74.23" y="11.81" width="8.99" height="3.49" transform="translate(18.31 -38.71) rotate(31.09)"/>
  <path class="cls-3" d="m22.14,6.82l22.43,37.46L66.95,6.92"/>
</svg>