<?xml version="1.0" encoding="utf-8"?>
<!-- Generator: Adobe Illustrator 27.5.0, SVG Export Plug-In . SVG Version: 6.00 Build 0)  -->
<svg version="1.1" id="Camada_1" xmlns="http://www.w3.org/2000/svg" xmlns:xlink="http://www.w3.org/1999/xlink" x="0px" y="0px"
	 viewBox="0 0 304 107" style="enable-background:new 0 0 304 107;" xml:space="preserve">
<style type="text/css">
	.st0{fill:#FFFFFF;stroke:#1D1D1B;stroke-width:10;stroke-miterlimit:10;}
	.st1{fill:#FFFFFF;stroke:#FFFFFF;stroke-width:2;stroke-miterlimit:10;}
</style>
<g id="_x35_5516796-f3c4-413e-963e-66f360cd0aa3" transform="matrix(4.501125335693359,0,0,4.501125335693359,100.9960708618164,5.192640781402588)">
	<path d="M5,14.3l3.3-9.8H7L5.4,9.5l-1.1,3.7H4.2L3.2,9.5L1.5,4.6H0.3l3.3,9.8H5z M10.3,5.4c0.5,0,0.7-0.2,0.7-0.6V4.6
		C11,4.2,10.8,4,10.3,4C9.8,4,9.6,4.2,9.6,4.6v0.2C9.6,5.2,9.8,5.4,10.3,5.4z M9.7,14.3h1.1V7.1H9.7V14.3z M19.1,14.3v-1h-0.8v-4
		c0-1.5-1-2.4-2.8-2.4c-1.3,0-2.2,0.6-2.6,1.4L13.6,9c0.4-0.7,1-1.1,1.8-1.1c1.2,0,1.7,0.6,1.7,1.6v0.7h-1.4c-2.1,0-3.1,0.8-3.1,2.1
		s0.9,2.2,2.4,2.2c1,0,1.8-0.5,2.1-1.4h0.1c0.1,0.7,0.4,1.2,1.2,1.2H19.1z M15.3,13.6c-0.9,0-1.4-0.4-1.4-1.1v-0.3
		c0-0.7,0.6-1.1,1.9-1.1h1.5v1.2C17.2,13,16.4,13.6,15.3,13.6z M26.8,15.1c0-1.2-0.8-1.9-2.6-1.9h-1.5c-0.7,0-1.1-0.1-1.1-0.5
		c0-0.4,0.5-0.7,1-0.8c0.2,0,0.5,0.1,0.7,0.1c1.6,0,2.7-1,2.7-2.5c0-0.8-0.3-1.4-0.8-1.9V7.1h1.4v-1h-1.1c-0.6,0-0.8,0.4-0.8,1v0.1
		C24.2,7.1,23.7,7,23.2,7c-1.6,0-2.7,1-2.7,2.5c0,1,0.5,1.8,1.4,2.2v0.1c-0.7,0.2-1.2,0.5-1.2,1.3c0,0.5,0.2,0.8,0.6,1v0.2
		c-0.7,0.2-1.1,0.6-1.1,1.4c0,1.1,0.9,1.8,3.2,1.8C25.6,17.3,26.8,16.6,26.8,15.1z M25.7,15.2c0,0.8-0.7,1.2-2,1.2h-1
		c-1.1,0-1.6-0.5-1.6-1.1c0-0.4,0.2-0.8,0.7-1h2.4C25.4,14.3,25.7,14.7,25.7,15.2z M23.2,11c-1,0-1.6-0.4-1.6-1.4V9.2
		c0-0.9,0.6-1.4,1.6-1.4c1,0,1.6,0.5,1.6,1.4v0.4C24.8,10.6,24.2,11,23.2,11z M30.7,14.5c1.4,0,2.4-0.7,2.9-1.7l-0.8-0.6
		c-0.4,0.8-1.1,1.3-2,1.3c-1.4,0-2.2-0.9-2.2-2.2V11h5.2v-0.5c0-2.1-1.2-3.5-3.1-3.5c-2,0-3.2,1.5-3.2,3.8
		C27.5,13,28.8,14.5,30.7,14.5z M30.7,7.9c1.1,0,1.9,0.8,1.9,2.1v0.2h-4v-0.1C28.6,8.8,29.5,7.9,30.7,7.9z M37.9,14.3v-1h-1.1V4
		h-1.1v9.2c0,0.7,0.4,1.2,1.2,1.2H37.9z M42.1,12l-0.4,1.2h-0.1L41.3,12l-1.7-4.9h-1.1l2.7,7.5l-0.5,1.5h-1.1v1H40
		c1.1,0,1.4-0.2,1.7-1.1l3.2-8.9h-1.1L42.1,12z"/>
</g>
<path class="st0" d="M8.6,17.4c44.3,64,44.3,64,44.3,64l38.1-64"/>
<path class="st0" d="M44.6,98.6"/>
<rect x="80.2" y="22" transform="matrix(0.866 0.5 -0.5 0.866 23.5824 -39.9465)" class="st1" width="12.3" height="4"/>
<rect x="75.9" y="32" transform="matrix(0.866 0.5 -0.5 0.866 28.0066 -36.4743)" class="st1" width="12.3" height="4"/>
<rect x="69" y="41.4" transform="matrix(0.866 0.5 -0.5 0.866 31.7692 -31.7596)" class="st1" width="12.3" height="4"/>
<rect x="63.7" y="50.7" transform="matrix(0.866 0.5 -0.5 0.866 35.6852 -27.8437)" class="st1" width="12.3" height="4"/>
<path class="st0" d="M28,17.4c23.5,35.9,23.5,35.9,23.5,35.9l20.2-35.9"/>
</svg>
